/* XPM */
static char * giFTcurs_xpm[] = {
"32 32 8 1",
" 	c None",
".	c #E5E5E5",
"+	c #CCCCCC",
"@	c #FFFFFF",
"#	c #B2B2B2",
"$	c #7F7F7F",
"%	c #999999",
"&	c #666667",
"                                ",
"                $               ",
"                $$$$$   ##      ",
"                &$&$$   +#      ",
"              $$%+%$ $ #++      ",
"              $%#.+$$$ +++#     ",
"             #+...+#$$#+.+      ",
"          ##.......+$#++++##    ",
"        #++@.......+#+..+++#    ",
"      ##.@..@.@@...+++.+#++     ",
"     #+#@.@@@@.@.+#++.++.+#     ",
"     ###..@.@@..+#.+.+#..+#     ",
"    ####+@@@@.##++.+....++###   ",
"    +#+##.@@.++++.....@.++++    ",
"    +.@.+.@@.##.+......++.+#    ",
"    +.@@@@.@.#+.+.@.@.#+.++#    ",
"    +..@@@@@.++++.....+.++#     ",
"    #.@.@@@@.+#++......+.+      ",
"     ..@.@@@@@+#++...+.++#      ",
"     .@.@@@.@@.+++++.+.++       ",
"     +@.@@@@@@@.+#+#++#+#       ",
"     #@.@.@@.@@@....+.+.+       ",
"     #.@.@@@@@@@@..@....+       ",
"     #..@.@.@.@.@@......+#      ",
"      +.@.@.@@.@.@.@....++#     ",
"      #...@.@.@.@......+.+#     ",
"       .....@.@......+++##      ",
"       +..@..@..@..++#          ",
"       #.....+.++#              ",
"        +.++++                  ",
"        ###                     ",
"                                "};
